<svg xmlns="http://www.w3.org/2000/svg" width="199" height="317" fill="none" viewBox="0 0 199 317">
  <mask id="a" width="194" height="233" x="6" y="1" maskUnits="userSpaceOnUse" style="mask-type:alpha">
    <path fill="#D9D9D9" stroke="#fff" stroke-linejoin="round" stroke-width="18" d="M15.316 10 91.64 117.157 15.3 224.314h174.897V10H15.316Z"/>
  </mask>
  <g mask="url(#a)">
    <path fill="#fff" stroke="#fff" stroke-linejoin="round" stroke-width="18" d="M2.697 10h170.191v18.91H2.697zm0 195.404h170.191v18.91H2.697z"/>
  </g>
  <path fill="#fff" stroke="#fff" stroke-linejoin="round" stroke-width="18" d="m9 73.961 10.327-7.231 35.665 50.935-10.327 7.23z"/>
  <path fill="#fff" stroke="#fff" stroke-linejoin="round" stroke-width="18" d="m9 161.38 10.327 7.231L54.975 117.7l-10.327-7.231zm180.671 26.941-16.543 35.477-17.138-7.992 16.543-35.477zm-.234-142.83L172.887 10l-17.138 7.992 16.55 35.492z"/>
  <mask id="b" width="117" height="234" x="6" y="0" maskUnits="userSpaceOnUse" style="mask-type:alpha">
    <path fill="#D9D9D9" stroke="#fff" stroke-linejoin="round" stroke-width="18" d="M90.944 117.157 15.304 10l34.668 18.91 63.033 88.247-63.033 88.247-34.669 18.91 75.64-107.157Z"/>
  </mask>
  <g mask="url(#b)">
    <path fill="#fff" stroke="#fff" stroke-linejoin="round" stroke-width="18" d="M14.688 10.027 30.178-.819l82.603 117.968-15.49 10.847z"/>
    <path fill="#fff" stroke="#fff" stroke-linejoin="round" stroke-width="18" d="m97.282 106.33 15.49 10.846-82.625 118-15.49-10.846z"/>
  </g>
  <path fill="#fff" stroke="#fff" stroke-linejoin="round" stroke-width="18" d="m94.284 277.57-1.693-3.628-15.595 7.278 1.694 3.629zm-23.857-15.927-1.693-3.63-3.639 1.699 1.694 3.629zm-4.551 3.197h4.005v18.204h-4.005zm29.301-3.614v-4.419l-18.204 8.496v4.419l18.204-8.496Z"/>
  <path fill="#fff" stroke="#fff" stroke-linejoin="round" stroke-width="18" d="M95.177 277.144v-4.42l-18.204 8.496v4.42l18.204-8.496Zm-.01 21.697v-4.419l-18.204 8.496v4.419l18.204-8.496Z"/>
  <path fill="#fff" stroke="#fff" stroke-linejoin="round" stroke-width="18" d="M76.973 267.116h4.005v15.928h-4.005zm14.199-6.827h4.005v36.408h-4.005z"/>
  <path fill="#fff" d="M161.163 261.226v-4.419l-18.204 8.496v4.419l18.204-8.496Zm0 15.918v-4.42l-18.204 8.496v4.42l18.204-8.496Zm6.83 3.625v-4.551l-10.842 5.003v4.42l10.842-5.06v.188Z"/>
  <path fill="#fff" d="M142.959 267.116h4.005v15.928h-4.005v-15.928Zm14.199-6.827h4.005v22.755h-4.005v-22.755Z"/>
  <path stroke="#fff" stroke-linejoin="round" stroke-width="18" d="M167.993 276.218v4.551-.188m0-4.363-10.842 5.003v4.42l10.842-5.06m0-4.363v4.363m-6.83-19.355v-4.419l-18.204 8.496v4.419l18.204-8.496Zm0 15.918v-4.42l-18.204 8.496v4.42l18.204-8.496Zm-18.204-10.028h4.005v15.928h-4.005v-15.928Zm14.199-6.827h4.005v22.755h-4.005v-22.755Z"/>
  <path fill="#fff" d="M136.136 258.97v23.077h-3.926v-20.345l3.926-2.732Z"/>
  <path fill="#fff" d="m136.136 258.97-1.963 3.796-1.963 3.796-13.121 9.188-2.315-3.306 15.436-10.742 3.926-2.732Zm-30.207 2.727v20.35h-3.926v-23.082l3.926 2.732Z"/>
  <path fill="#fff" d="m121.39 272.457-2.315 3.305-13.146-9.205-1.876-3.629-2.05-3.963 3.926 2.732 15.461 10.76Z"/>
  <path stroke="#fff" stroke-linejoin="round" stroke-width="18" d="M136.136 258.97v23.077h-3.926v-15.485m3.926-7.592-3.926 2.732m3.926-2.732-1.963 3.796-1.963 3.796m3.926-7.592-3.926 7.592m0-4.86-15.436 10.742 2.315 3.306 13.121-9.188m0-4.86v4.86m-26.281-4.865-3.926-2.732m3.926 2.732 15.461 10.76-2.315 3.305-13.146-9.205m0-4.86v4.86m-3.926-7.592v23.082h3.926v-15.49m-3.926-7.592 2.05 3.963 1.876 3.629m-3.926-7.592 3.926 7.592"/>
  <path fill="#fff" d="m59.822 273.122-3.693 1.722-2.462-3.267-15.187-20.154-2.48-3.259 3.725-1.738 2.462 3.268 15.188 20.154 2.447 3.274Z"/>
  <path fill="#fff" d="M38.48 251.423 36 248.164l3.725-1.738L57.795 238l1.692 3.627-17.3 8.067-3.707 1.729Zm-.452 31.862-1.691-3.627 17.33-8.081 3.708-1.729 2.447 3.274-3.693 1.722-18.101 8.441Z"/>
  <path stroke="#fff" stroke-linejoin="round" stroke-width="18" d="m56.129 274.844 3.693-1.722-2.447-3.274m-1.246 4.996-2.462-3.267m2.462 3.267-18.101 8.441-1.691-3.627 17.33-8.081m-13.942-25.151L36 248.164l2.48 3.259m1.245-4.997L57.795 238l1.692 3.627-17.3 8.067m-2.462-3.268 2.462 3.268m-3.707 1.729 15.187 20.154M38.48 251.423l3.708-1.729m15.187 20.154-3.708 1.729m3.708-1.729-15.188-20.154"/>
</svg>
