<svg xmlns="http://www.w3.org/2000/svg" width="721" height="268" fill="none" viewBox="0 0 721 268">
  <mask id="a" width="193" height="215" x="6" y="0" maskUnits="userSpaceOnUse" style="mask-type:alpha">
    <path fill="#D9D9D9" d="m6.303 0 75.64 107.157-75.64 107.157h192.253V0H6.303Z"/>
  </mask>
  <g mask="url(#a)">
    <path fill="#fff" d="M-6.303 0h170.191v18.91H-6.303zm0 195.404h170.191v18.91H-6.303z"/>
  </g>
  <path fill="#fff" d="m0 63.961 10.327-7.231 35.665 50.935-10.327 7.23z"/>
  <path fill="#fff" d="m0 151.38 10.327 7.231L45.975 107.7l-10.327-7.231zm180.671 26.941-16.543 35.477-17.138-7.992 16.543-35.477zm-.235-142.83L163.886 0l-17.138 7.99 16.55 35.492z"/>
  <mask id="b" width="99" height="215" x="6" y="0" maskUnits="userSpaceOnUse" style="mask-type:alpha">
    <path fill="#D9D9D9" d="M81.944 107.157 6.304 0l34.668 18.91 63.033 88.247-63.033 88.247-34.669 18.91 75.64-107.157Z"/>
  </mask>
  <g mask="url(#b)">
    <path fill="#7ACE93" d="m5.688.027 15.49-10.846 82.603 117.968-15.49 10.847z"/>
    <path fill="#7ACE93" d="m88.282 96.33 15.49 10.846-82.625 118-15.49-10.846z"/>
  </g>
  <path fill="#fff" d="m469.35 166.152-5.763-12.348-53.057 24.762 5.763 12.348z"/>
  <path fill="#7ACE93" d="m388.178 111.959-5.762-12.348-12.38 5.778 5.762 12.348z"/>
  <path fill="#fff" d="M372.694 122.836h13.626v61.936h-13.626zm99.691-12.295V95.504l-61.936 28.906v15.037l61.936-28.906Zm0 54.156V149.66l-61.936 28.906v15.037l61.936-28.906Zm-.034 73.823v-15.037l-61.936 28.906v15.037l61.936-28.906Z"/>
  <path fill="#fff" d="M410.449 130.578h13.626v54.194h-13.626zm48.31-23.226h13.626v123.872h-13.626zm238.134 3.189V95.504l-61.936 28.906v15.037l61.936-28.906Zm0 54.156V149.66l-61.936 28.906v15.037l61.936-28.906Zm23.237 12.334v-15.485l-36.886 17.024v15.037l36.886-17.215v.639Z"/>
  <path fill="#fff" d="M634.957 130.578h13.626v54.195h-13.626v-54.195Zm48.31-23.226h13.626v77.421h-13.626v-77.421Zm-71.526-4.487v78.516h-13.357v-69.22l13.357-9.296Z"/>
  <path fill="#7ACE93" d="m611.741 102.865-6.678 12.916-6.679 12.915-44.643 31.26-7.875-11.248 52.518-36.547 13.357-9.296Z"/>
  <path fill="#fff" d="M508.968 112.144v69.237h-13.357v-78.532l13.357 9.295Z"/>
  <path fill="#7ACE93" d="m561.571 148.751-7.875 11.247-44.728-31.319-6.385-12.347-6.972-13.483 13.357 9.295 52.603 36.607Z"/>
  <path fill="#fff" d="m352.096 151.013-12.566 5.86-8.377-11.116-51.672-68.571-8.437-11.09 12.675-5.91 8.377 11.117 51.672 68.571 8.328 11.139Z"/>
  <path fill="#fff" d="m279.481 77.186-8.437-11.09 12.675-5.91 61.483-28.67 5.754 12.34-58.86 27.447-12.615 5.883Zm-1.537 108.405-5.754-12.34 58.963-27.494 12.615-5.883 8.328 11.139-12.566 5.86-61.586 28.718Z"/>
</svg>
