<svg xmlns="http://www.w3.org/2000/svg" width="721" height="268" fill="none" viewBox="0 0 721 268">
  <mask id="a" width="193" height="215" x="6" y="0" maskUnits="userSpaceOnUse" style="mask-type:alpha">
    <path fill="#D9D9D9" d="m6.42 0 75.64 107.157L6.42 214.314h192.252V0H6.419Z"/>
  </mask>
  <g mask="url(#a)">
    <path fill="#1F1E33" d="M-6.188 0h170.191v18.91H-6.188zm0 195.404h170.191v18.91H-6.188z"/>
  </g>
  <path fill="#1F1E33" d="m.116 63.961 10.327-7.231 35.665 50.935-10.327 7.23z"/>
  <path fill="#1F1E33" d="m.116 151.38 10.327 7.231L46.091 107.7l-10.327-7.231zm180.671 26.941-16.543 35.477-17.138-7.992 16.543-35.477zm-.235-142.83L164.002 0l-17.138 7.99 16.55 35.492z"/>
  <mask id="b" width="99" height="215" x="6" y="0" maskUnits="userSpaceOnUse" style="mask-type:alpha">
    <path fill="#D9D9D9" d="M82.06 107.157 6.42 0l34.667 18.91 63.034 88.247-63.033 88.247-34.669 18.91 75.64-107.157Z"/>
  </mask>
  <g mask="url(#b)">
    <path fill="#286D3C" d="m5.804.027 15.49-10.846 82.603 117.968-15.49 10.847z"/>
    <path fill="#286D3C" d="m88.398 96.33 15.49 10.846-82.625 118-15.49-10.846z"/>
  </g>
  <path fill="#1F1E33" d="m469.465 166.152-5.763-12.348-53.056 24.762 5.763 12.347z"/>
  <path fill="#286D3C" d="m388.294 111.958-5.763-12.347-12.38 5.778 5.762 12.347z"/>
  <path fill="#1F1E33" d="M372.81 122.836h13.626v61.936H372.81zm99.691-12.295V95.504l-61.936 28.906-.001 15.037 61.937-28.906Zm0 54.156V149.66l-61.936 28.906v15.037l61.936-28.906Zm-.034 73.823v-15.037l-61.936 28.906v15.037l61.936-28.906Z"/>
  <path fill="#1F1E33" d="M410.564 130.578h13.626v54.194h-13.626zm48.311-23.226h13.626v123.872h-13.626zm238.134 3.189V95.504l-61.936 28.906v15.037l61.936-28.906Zm0 54.156V149.66l-61.936 28.907v15.036l61.936-28.906Zm23.236 12.334v-15.484L683.36 178.57v15.037l36.885-17.215v.639Z"/>
  <path fill="#1F1E33" d="M635.073 130.578h13.626v54.195h-13.626v-54.195Zm48.31-23.226h13.626v77.421h-13.626v-77.421Zm-71.526-4.487v78.516H598.5v-69.22l13.357-9.296Z"/>
  <path fill="#286D3C" d="m611.857 102.865-6.678 12.916-6.679 12.915-44.643 31.26-7.876-11.248 52.519-36.547 13.357-9.296Z"/>
  <path fill="#1F1E33" d="M509.084 112.144v69.237h-13.357v-78.532l13.357 9.295Z"/>
  <path fill="#286D3C" d="m561.687 148.751-7.875 11.247-44.728-31.319-6.385-12.347-6.972-13.483 13.357 9.295 52.603 36.607Z"/>
  <path fill="#1F1E33" d="m352.211 151.013-12.565 5.86-8.377-11.116-51.672-68.571-8.437-11.09 12.675-5.91 8.377 11.117 51.672 68.571 8.327 11.139Z"/>
  <path fill="#1F1E33" d="m279.597 77.186-8.437-11.09 12.675-5.91 61.482-28.67 5.754 12.34-58.859 27.447-12.615 5.883Zm-1.537 108.405-5.755-12.34 58.964-27.494 12.615-5.883 8.327 11.139-12.565 5.86-61.586 28.718Z"/>
</svg>
