<svg xmlns="http://www.w3.org/2000/svg" width="182" height="215" fill="none" viewBox="0 0 182 215">
  <mask id="a" width="176" height="215" x="6" y="0" maskUnits="userSpaceOnUse" style="mask-type:alpha">
    <path fill="#D9D9D9" d="M6.316 0 82.64 107.157 6.3 214.314h174.897V0H6.316Z"/>
  </mask>
  <g mask="url(#a)">
    <path fill="#1F1E33" d="M-6.303 0h170.191v18.91H-6.303zm0 195.404h170.191v18.91H-6.303z"/>
  </g>
  <path fill="#1F1E33" d="m0 63.961 10.327-7.231 35.665 50.935-10.327 7.23z"/>
  <path fill="#1F1E33" d="m0 151.38 10.327 7.231L45.975 107.7l-10.327-7.231zm180.671 26.941-16.543 35.477-17.138-7.992 16.543-35.477zm-.235-142.83L163.886 0l-17.138 7.99 16.55 35.492z"/>
  <mask id="b" width="99" height="215" x="6" y="0" maskUnits="userSpaceOnUse" style="mask-type:alpha">
    <path fill="#D9D9D9" d="M81.944 107.157 6.304 0l34.668 18.91 63.033 88.247-63.033 88.247-34.669 18.91 75.64-107.157Z"/>
  </mask>
  <g mask="url(#b)">
    <path fill="#286D3C" d="m5.688.027 15.49-10.846 82.603 117.968-15.49 10.847z"/>
    <path fill="#286D3C" d="m88.282 96.33 15.49 10.846-82.625 118-15.49-10.846z"/>
  </g>
</svg>
