<svg xmlns="http://www.w3.org/2000/svg" width="739" height="287" fill="none" viewBox="0 0 739 287">
  <mask id="a" width="211" height="233" x="6" y="1" maskUnits="userSpaceOnUse" style="mask-type:alpha">
    <path fill="#D9D9D9" stroke="#fff" stroke-linejoin="round" stroke-width="18" d="m15.303 10 75.64 107.157-75.64 107.157h192.253V10H15.303Z"/>
  </mask>
  <g mask="url(#a)">
    <path fill="#fff" stroke="#fff" stroke-linejoin="round" stroke-width="18" d="M2.697 10h170.191v18.91H2.697zm0 195.404h170.191v18.91H2.697z"/>
  </g>
  <path fill="#fff" stroke="#fff" stroke-linejoin="round" stroke-width="18" d="m9 73.961 10.327-7.231 35.665 50.935-10.327 7.23z"/>
  <path fill="#fff" stroke="#fff" stroke-linejoin="round" stroke-width="18" d="m9 161.38 10.327 7.231L54.975 117.7l-10.327-7.231zm180.671 26.941-16.543 35.477-17.138-7.992 16.543-35.477zm-.234-142.83L172.887 10l-17.138 7.992 16.55 35.492z"/>
  <mask id="b" width="117" height="234" x="6" y="0" maskUnits="userSpaceOnUse" style="mask-type:alpha">
    <path fill="#D9D9D9" stroke="#fff" stroke-linejoin="round" stroke-width="18" d="M90.944 117.157 15.304 10l34.668 18.91 63.033 88.247-63.033 88.247-34.669 18.91 75.64-107.157Z"/>
  </mask>
  <g mask="url(#b)">
    <path fill="#fff" stroke="#fff" stroke-linejoin="round" stroke-width="18" d="M14.688 10.027 30.178-.819l82.603 117.968-15.49 10.847z"/>
    <path fill="#fff" stroke="#fff" stroke-linejoin="round" stroke-width="18" d="m97.282 106.33 15.49 10.846-82.625 118-15.49-10.846z"/>
  </g>
  <path fill="#fff" stroke="#fff" stroke-linejoin="round" stroke-width="18" d="m478.35 176.153-5.763-12.348-53.056 24.762 5.762 12.348zm-81.171-54.195-5.763-12.347-12.38 5.778 5.762 12.347zm-15.485 10.878h13.626v61.936h-13.626zm99.691-12.295v-15.037l-61.936 28.906v15.037l61.936-28.906Z"/>
  <path fill="#fff" stroke="#fff" stroke-linejoin="round" stroke-width="18" d="M481.385 174.697V159.66l-61.936 28.906v15.037l61.936-28.906Zm-.034 73.823v-15.037l-61.936 28.906v15.037l61.936-28.906Z"/>
  <path fill="#fff" stroke="#fff" stroke-linejoin="round" stroke-width="18" d="M419.449 140.578h13.626v54.194h-13.626zm48.31-23.226h13.626v123.872h-13.626z"/>
  <path fill="#fff" d="M705.893 120.541v-15.037l-61.936 28.906v15.037l61.936-28.906Zm0 54.156V159.66l-61.936 28.906v15.037l61.936-28.906Zm23.237 12.334v-15.485l-36.886 17.024v15.037l36.886-17.215v.639Z"/>
  <path fill="#fff" d="M643.957 140.578h13.626v54.195h-13.626v-54.195Zm48.31-23.226h13.626v77.421h-13.626v-77.421Z"/>
  <path stroke="#fff" stroke-linejoin="round" stroke-width="18" d="M729.13 171.546v15.485-.639m0-14.846-36.886 17.024v15.037l36.886-17.215m0-14.846v14.846m-23.237-65.851v-15.037l-61.936 28.906v15.037l61.936-28.906Zm0 54.156V159.66l-61.936 28.906v15.037l61.936-28.906Zm-61.936-34.119h13.626v54.195h-13.626v-54.195Zm48.31-23.226h13.626v77.421h-13.626v-77.421Z"/>
  <path fill="#fff" d="M620.741 112.865v78.516h-13.357v-69.22l13.357-9.296Z"/>
  <path fill="#fff" d="m620.741 112.865-6.678 12.916-6.679 12.915-44.643 31.26-7.875-11.248 52.518-36.547 13.357-9.296Zm-102.773 9.279v69.237h-13.357v-78.532l13.357 9.295Z"/>
  <path fill="#fff" d="m570.571 158.751-7.875 11.247-44.728-31.319-6.385-12.347-6.972-13.483 13.357 9.295 52.603 36.607Z"/>
  <path stroke="#fff" stroke-linejoin="round" stroke-width="18" d="M620.741 112.865v78.516h-13.357v-52.685m13.357-25.831-13.357 9.296m13.357-9.296-6.678 12.916-6.679 12.915m13.357-25.831-13.357 25.831m0-16.535-52.518 36.547 7.875 11.248 44.643-31.26m0-16.535v16.535m-89.416-16.552-13.357-9.295m13.357 9.295 52.603 36.607-7.875 11.247-44.728-31.319m0-16.535v16.535m-13.357-25.83v78.532h13.357v-52.702m-13.357-25.83 6.972 13.483 6.385 12.347m-13.357-25.83 13.357 25.83"/>
  <path fill="#fff" d="m361.096 161.013-12.566 5.86-8.377-11.116-51.672-68.571-8.437-11.09 12.675-5.91 8.377 11.117 51.672 68.571 8.328 11.139Z"/>
  <path fill="#fff" d="m288.481 87.186-8.437-11.09 12.675-5.91 61.483-28.67 5.754 12.34-58.86 27.447-12.615 5.883Zm-1.537 108.405-5.754-12.34 58.963-27.494 12.615-5.883 8.328 11.139-12.566 5.86-61.586 28.718Z"/>
  <path stroke="#fff" stroke-linejoin="round" stroke-width="18" d="m348.53 166.873 12.566-5.86-8.328-11.139m-4.238 16.999-8.377-11.116m8.377 11.116-61.586 28.718-5.754-12.34 58.963-27.494m-47.434-85.57-12.675 5.91 8.437 11.089m4.238-17 61.483-28.67 5.754 12.34-58.86 27.447m-8.377-11.117 8.377 11.117m-12.615 5.883 51.672 68.571m-51.672-68.571 12.615-5.883m51.672 68.571-12.615 5.883m12.615-5.883-51.672-68.571"/>
</svg>
