<svg xmlns="http://www.w3.org/2000/svg" width="182" height="298" fill="none" viewBox="0 0 182 298">
  <mask id="a" width="176" height="215" x="6" y="0" maskUnits="userSpaceOnUse" style="mask-type:alpha">
    <path fill="#D9D9D9" d="M6.316 0 82.64 107.157 6.3 214.314h174.897V0H6.316Z"/>
  </mask>
  <g mask="url(#a)">
    <path fill="#fff" d="M-6.303 0h170.191v18.91H-6.303zm0 195.404h170.191v18.91H-6.303z"/>
  </g>
  <path fill="#fff" d="m0 63.961 10.327-7.231 35.665 50.935-10.327 7.23z"/>
  <path fill="#fff" d="m0 151.38 10.327 7.231L45.975 107.7l-10.327-7.231zm180.671 26.941-16.543 35.477-17.138-7.992 16.543-35.477zm-.235-142.83L163.886 0l-17.138 7.99 16.55 35.492z"/>
  <mask id="b" width="99" height="215" x="6" y="0" maskUnits="userSpaceOnUse" style="mask-type:alpha">
    <path fill="#D9D9D9" d="M81.944 107.157 6.304 0l34.668 18.91 63.033 88.247-63.033 88.247-34.669 18.91 75.64-107.157Z"/>
  </mask>
  <g mask="url(#b)">
    <path fill="#7ACE93" d="m5.688.027 15.49-10.846 82.603 117.968-15.49 10.847z"/>
    <path fill="#7ACE93" d="m88.282 96.33 15.49 10.846-82.625 118-15.49-10.846z"/>
  </g>
  <path fill="#fff" d="m85.284 267.571-1.693-3.629-15.595 7.278 1.694 3.63z"/>
  <path fill="#7ACE93" d="m61.427 251.643-1.694-3.629-3.638 1.698 1.694 3.63z"/>
  <path fill="#fff" d="M56.876 254.84h4.005v18.204h-4.005zm29.301-3.614v-4.419l-18.204 8.496v4.419l18.204-8.496Zm0 15.918v-4.42l-18.204 8.496v4.42l18.204-8.496Zm-.01 21.697v-4.419l-18.204 8.496v4.419l18.204-8.496Z"/>
  <path fill="#fff" d="M67.973 257.116h4.005v15.928h-4.005zm14.199-6.827h4.005v36.408h-4.005zm69.991.937v-4.419l-18.204 8.496v4.419l18.204-8.496Zm0 15.918v-4.42l-18.204 8.496v4.42l18.204-8.496Zm6.83 3.625v-4.551l-10.842 5.003v4.42l10.842-5.06v.188Z"/>
  <path fill="#fff" d="M133.959 257.116h4.005v15.928h-4.005v-15.928Zm14.199-6.827h4.005v22.755h-4.005v-22.755Zm-21.022-1.319v23.077h-3.926v-20.345l3.926-2.732Z"/>
  <path fill="#7ACE93" d="m127.136 248.97-1.963 3.796-1.963 3.796-13.121 9.188-2.315-3.306 15.436-10.742 3.926-2.732Z"/>
  <path fill="#fff" d="M96.93 251.697v20.35h-3.927v-23.082l3.926 2.732Z"/>
  <path fill="#7ACE93" d="m112.39 262.457-2.315 3.305-13.146-9.205-1.876-3.629-2.05-3.963 3.926 2.732 15.461 10.76Z"/>
  <path fill="#fff" d="m50.822 263.122-3.693 1.722-2.462-3.267-15.187-20.154-2.48-3.259 3.725-1.738 2.462 3.268 15.188 20.154 2.447 3.274Z"/>
  <path fill="#fff" d="M29.48 241.423 27 238.164l3.725-1.738L48.795 228l1.692 3.627-17.3 8.067-3.707 1.729Zm-.452 31.862-1.691-3.627 17.33-8.081 3.708-1.729 2.447 3.274-3.693 1.722-18.101 8.441Z"/>
</svg>
